<svg width="52" height="52" viewBox="0 0 52 52" fill="none" xmlns="http://www.w3.org/2000/svg">
<circle cx="26" cy="26" r="26" fill="white"/>
<rect x="8" y="9" width="36" height="26" rx="7" fill="black"/>
<path d="M35 16L17 29" stroke="white" stroke-width="4" stroke-linecap="round"/>
<path d="M24.268 34C25.0378 32.6667 26.9623 32.6667 27.7321 34L32.0622 41.5C32.832 42.8333 31.8697 44.5 30.3301 44.5H21.6699C20.1303 44.5 19.168 42.8333 19.9378 41.5L24.268 34Z" fill="black"/>
<path d="M26.2758 17.1153C25.2802 15.9408 25.9294 14.1291 27.4442 13.8542L35.9653 12.3077C37.4802 12.0328 38.7246 13.5008 38.2052 14.9502L35.284 23.1029C34.7647 24.5522 32.8711 24.8959 31.8756 23.7215L26.2758 17.1153Z" fill="white"/>
</svg>
